# xmcd
#
# Track frame offsets:
#	150
#	27374
#	40666
#	69064
#	92448
#	108930
#	127472
#	144458
#	163942
#	183794
#	203866
#	226259
#	242590
#	257373
#
# Disc length: 3758 seconds
# Revision: 0
# Processed by: cddbd v1.5.2PL0 Copyright (c) Steve Scherf et al.
# Submitted via: dBpowerAMP V12.0
#
DISCID=b20eac0e
DTITLE=KNiKi - Dead On
DYEAR=2010
DGENRE=Blues
TTITLE0=Love me Like a Man
TTITLE1=Rollin' and Tumblin
TTITLE2=Holding Hands With the Devil
TTITLE3=Drowning
TTITLE4=Dead On
TTITLE5=Aint That Loving You Baby
TTITLE6=Tiny Little Pieces
TTITLE7=Fishbone
TTITLE8=Baby
TTITLE9=Luv U Lies
TTITLE10=Crashed
TTITLE11=Holding Hands With the Devil- Acoustic
TTITLE12=Tiny Little Pieces- Acoustic
TTITLE13=Love me Like a Man- Acoustic
EXTD=
EXTT0=
EXTT1=
EXTT2=
EXTT3=
EXTT4=
EXTT5=
EXTT6=
EXTT7=
EXTT8=
EXTT9=
EXTT10=
EXTT11=
EXTT12=
EXTT13=
PLAYORDER=
